<svg width="40" height="24" fill="none" xmlns="http://www.w3.org/2000/svg"><path fill-rule="evenodd" clip-rule="evenodd" d="M28.06 1.11c3.38.784 4.674 2.761 6.296 5.483H28.06V1.11ZM8.299 6.82c.662 0 1.143.32 1.143 1.067 0 .63-.51 1.14-1.14 1.142H1.4a1.143 1.143 0 0 0 0 2.285h10.284a1.142 1.142 0 1 1 .004 2.286H1.4a1.143 1.143 0 1 0 0 2.285h2.514v3.428c0 .63.512 1.142 1.143 1.142h2.296a4.382 4.382 0 0 0 8.585 0h11.601a4.382 4.382 0 0 0 8.584 0h1.992c.631 0 1.143-.511 1.143-1.142v-6.856c0-3.352-3.536-3.575-3.54-3.58h-8.8a1.143 1.143 0 0 1-1.143-1.143V.88H5.056c-.631 0-1.143.511-1.143 1.142v2.514H2.542a1.143 1.143 0 1 0 0 2.285h5.757ZM33.31 18.1a2.095 2.095 0 0 1 0 2.963c-1.316 1.315-3.576.38-3.576-1.482 0-1.86 2.26-2.797 3.576-1.481Zm-20.185 0a2.095 2.095 0 0 1 0 2.963c-1.316 1.315-3.576.38-3.576-1.482 0-1.86 2.26-2.797 3.576-1.481Z" fill="#fff"/></svg>