<svg width="22" height="23" fill="none" xmlns="http://www.w3.org/2000/svg"><path d="m16.048 13.512-.008.069c-2.016-1.005-2.227-1.139-2.487-.748-.18.27-.707.883-.865 1.065-.16.179-.32.192-.593.069-.275-.138-1.157-.427-2.202-1.362-.814-.728-1.36-1.622-1.522-1.897-.268-.464.293-.53.805-1.498.092-.192.045-.344-.023-.48-.069-.138-.616-1.485-.845-2.022-.22-.536-.447-.468-.616-.468-.528-.046-.914-.038-1.254.315-1.48 1.627-1.107 3.304.16 5.088 2.487 3.256 3.813 3.855 6.236 4.688.655.208 1.252.178 1.724.11.526-.083 1.62-.66 1.848-1.306.234-.647.234-1.183.165-1.307-.068-.123-.248-.192-.523-.316Z" fill="#fff"/><path d="M18.81 3.558C11.762-3.255.097 1.687.093 11.298c0 1.922.503 3.796 1.462 5.45L0 22.397l5.807-1.514c7.246 3.914 16.19-1.284 16.193-9.579 0-2.911-1.137-5.651-3.204-7.71l.014-.036Zm1.359 7.716c-.006 6.997-7.687 11.367-13.762 7.795l-.33-.196-3.437.894.921-3.341-.219-.344c-3.78-6.018.563-13.883 7.724-13.883 2.433 0 4.716.949 6.436 2.668a8.972 8.972 0 0 1 2.667 6.407Z" fill="#fff"/></svg>