<svg width="25" height="25" fill="none" xmlns="http://www.w3.org/2000/svg"><g clip-path="url(#a)"><path d="M22.831 16.188c-1.47 0-2.912-.23-4.28-.681-.67-.229-1.493-.02-1.902.4l-2.698 2.038c-3.13-1.67-5.057-3.598-6.705-6.704l1.977-2.628A1.94 1.94 0 0 0 9.7 6.647a13.647 13.647 0 0 1-.684-4.286A1.928 1.928 0 0 0 7.09.435H2.683A1.928 1.928 0 0 0 .757 2.361c0 12.172 9.902 22.074 22.074 22.074a1.928 1.928 0 0 0 1.926-1.926v-4.395a1.928 1.928 0 0 0-1.926-1.926Z" fill="#fff"/></g><defs><clipPath id="a"><path fill="#fff" transform="translate(.757 .435)" d="M0 0h24v24H0z"/></clipPath></defs></svg>