<svg width="23" height="23" fill="none" xmlns="http://www.w3.org/2000/svg"><g clip-path="url(#a)"><path d="M11.953.51c-6.075 0-11 4.925-11 11 0 6.074 4.925 11 11 11 6.074 0 11-4.926 11-11 0-6.075-4.926-11-11-11Zm2.29 17.048c-.567.223-1.017.393-1.355.51-.338.117-.73.176-1.176.176-.685 0-1.219-.168-1.598-.502a1.62 1.62 0 0 1-.57-1.273c0-.2.014-.405.042-.614.03-.208.075-.443.137-.707l.709-2.503c.062-.24.116-.468.16-.68.042-.214.063-.411.063-.59 0-.318-.067-.542-.198-.668-.133-.125-.384-.187-.757-.187-.182 0-.37.027-.563.084-.191.059-.357.112-.493.164l.187-.771c.464-.189.908-.351 1.332-.485a3.934 3.934 0 0 1 1.201-.203c.68 0 1.206.166 1.576.493.368.33.553.757.553 1.282 0 .109-.013.3-.038.574a3.842 3.842 0 0 1-.142.756l-.705 2.495c-.058.2-.109.43-.155.685a3.629 3.629 0 0 0-.068.583c0 .332.073.558.222.678.147.12.405.181.77.181.173 0 .365-.03.583-.09.216-.06.373-.113.472-.159l-.19.77Zm-.125-10.13a1.682 1.682 0 0 1-1.188.458 1.7 1.7 0 0 1-1.191-.458 1.463 1.463 0 0 1-.497-1.111c0-.433.168-.806.496-1.114.332-.31.73-.463 1.192-.463.463 0 .86.154 1.188.463.329.308.493.68.493 1.114 0 .435-.165.805-.493 1.11Z" fill="#4C0085"/></g><defs><clipPath id="a"><path fill="#fff" transform="translate(.953 .51)" d="M0 0h22v22H0z"/></clipPath></defs></svg>