<svg width="27" height="27" fill="none" xmlns="http://www.w3.org/2000/svg"><g clip-path="url(#a)" fill="#fff"><path d="M13.757 26.435c1.559 0 2.9-.941 3.49-2.285h-6.98a3.814 3.814 0 0 0 3.49 2.285ZM21.628 13.022v-1.669c0-3.546-2.357-6.55-5.586-7.532v-1.1A2.288 2.288 0 0 0 13.757.434a2.288 2.288 0 0 0-2.285 2.285v1.1c-3.23.982-5.586 3.987-5.586 7.533v1.669a11.96 11.96 0 0 1-3.343 8.315.762.762 0 0 0 .55 1.29H24.42a.762.762 0 0 0 .55-1.29 11.96 11.96 0 0 1-3.343-8.315Zm-7.11-9.503a7.934 7.934 0 0 0-1.523 0V2.72a.763.763 0 0 1 1.524 0v.799ZM23.66 11.353a.762.762 0 0 0 1.523 0c0-3.052-1.189-5.921-3.346-8.08a.762.762 0 0 0-1.078 1.078 9.837 9.837 0 0 1 2.9 7.002ZM3.093 12.115c.42 0 .761-.341.761-.762a9.838 9.838 0 0 1 2.9-7.002.762.762 0 1 0-1.076-1.077 11.35 11.35 0 0 0-3.347 8.08c0 .42.341.76.762.76Z"/></g><defs><clipPath id="a"><path fill="#fff" transform="translate(.757 .435)" d="M0 0h26v26H0z"/></clipPath></defs></svg>