<svg width="85" height="41" viewBox="0 0 85 41" fill="none" xmlns="http://www.w3.org/2000/svg">
<g opacity="0.2">
<path d="M2.23297 31.5879H45.8982C47.1429 31.5879 48.1309 30.5793 48.1309 29.3531C48.1309 28.1071 47.1232 27.1182 45.8982 27.1182H2.23297C0.988217 27.1182 0.000306158 28.1268 0.000306158 29.3531C0.000306158 30.5793 1.00797 31.5879 2.23297 31.5879Z" fill="white"/>
<path d="M20.984 40.7649H69.2727C77.5711 40.7649 84.3086 34.0207 84.3086 25.714C84.3086 17.4074 77.5711 10.6631 69.2727 10.6631C67.2574 10.6631 65.2816 11.0587 63.4638 11.83C62.4562 8.96224 60.6977 6.37136 58.3465 4.3738C55.1852 1.66425 51.1546 0.161133 46.9856 0.161133C41.1175 0.161133 35.7038 3.14757 32.4832 7.87446C30.6852 5.8769 27.6622 3.82002 22.861 3.82002C15.6493 3.82002 9.80097 9.69402 9.80097 16.8931C9.80097 18.1391 10.8086 19.128 12.0336 19.128C13.2784 19.128 14.2663 18.1194 14.2663 16.8931C14.2663 12.1465 18.1191 8.30957 22.8413 8.30957C28.7687 8.30957 30.4877 12.898 30.5469 13.0958V13.076L34.7751 13.1354C36.6522 8.05247 41.5522 4.65068 46.9856 4.65068C53.3675 4.65068 58.7614 9.23914 59.8086 15.5482L63.286 17.0316C65.0643 15.8054 67.1191 15.1527 69.2727 15.1527C75.1014 15.1527 79.8235 19.8994 79.8235 25.714C79.8235 31.5485 75.0816 36.2754 69.2727 36.2754H20.984C19.7392 36.2754 18.7514 37.284 18.7514 38.5102C18.7316 39.7562 19.7392 40.7649 20.984 40.7649Z" fill="white"/>
</g>
</svg>
