<svg width="238" height="36" viewBox="0 0 238 36" fill="none" xmlns="http://www.w3.org/2000/svg">
<path opacity="0.12" d="M236.726 12.1774C236.756 12.7844 236.341 13.6485 234.879 14.7423C233.46 15.8042 231.279 16.9081 228.36 18.023C222.535 20.2476 214.001 22.4301 203.358 24.4418C182.088 28.4624 152.56 31.7706 119.821 33.406C87.0815 35.0415 57.3702 34.6926 35.8054 32.8119C25.0155 31.8708 16.3066 30.5497 10.2886 28.9167C7.2727 28.0983 4.99287 27.2172 3.47508 26.302C1.91186 25.3593 1.41219 24.5409 1.38187 23.934C1.35156 23.327 1.76717 22.4629 3.22866 21.3691C4.64768 20.3072 6.82835 19.2033 9.74771 18.0884C15.573 15.8638 24.1068 13.6813 34.7492 11.6696C56.0193 7.64903 85.5479 4.34083 118.287 2.70536C151.026 1.06989 180.737 1.41877 202.302 3.29952C213.092 4.24055 221.801 5.56172 227.819 7.1947C230.835 8.01308 233.115 8.89416 234.633 9.80942C236.196 10.7521 236.696 11.5705 236.726 12.1774Z" stroke="white" stroke-width="2"/>
</svg>
