<svg width="446" height="280" viewBox="0 0 446 280" fill="none" xmlns="http://www.w3.org/2000/svg">
<path d="M31.5328 176.028H114.903L116.129 177.257V186.816L114.903 188.045H111.104V278.488L109.877 279.717H36.58L35.3535 278.488V188.055H31.5546L30.3281 186.826V177.268L31.5328 176.028ZM37.7957 277.259H108.629V272.67H37.7957V277.259ZM37.7957 270.213H108.629V265.624H37.7957V270.213ZM37.7957 263.155H108.629V258.566H37.7957V263.155ZM37.7957 256.109H108.629V251.519H37.7957V256.109ZM37.7957 249.051H108.629V244.462H37.7957V249.051ZM37.7957 242.004H108.629V237.415H37.7957V242.004ZM37.7957 234.946H108.629V230.357H37.7957V234.946ZM37.7957 227.9H108.629V223.311H37.7957V227.9ZM37.7957 220.842H108.629V216.253H37.7957V220.842ZM37.7957 213.795H108.629V209.206H37.7957V213.795ZM37.7957 206.738H108.629V202.148H37.7957V206.738ZM37.7957 199.691H108.629V195.102H37.7957V199.691ZM37.7957 192.634H108.629V188.055H37.7957V192.634ZM32.7594 185.587H36.5583H109.856H113.655V178.497H32.7486V185.587H32.7594Z" fill="white"/>
<path d="M123.271 176.028H206.642L207.868 177.257V186.816L206.642 188.045H202.842V213.251C202.842 213.936 202.289 214.48 201.616 214.48C200.943 214.48 200.389 213.926 200.389 213.251V202.148H129.556V278.488C129.556 279.173 129.002 279.717 128.329 279.717C127.656 279.717 127.103 279.163 127.103 278.488V188.055H123.304L122.077 186.826V177.268L123.271 176.028ZM200.378 199.691V195.102H129.545V199.691H200.378ZM129.545 192.634H200.378V188.055H129.545V192.634ZM124.509 185.587H128.308H201.605H205.404V178.497H124.498V185.587H124.509Z" fill="white"/>
<path fill-rule="evenodd" clip-rule="evenodd" d="M129.488 150.472H1.63858L0.412109 149.244V148.012H2.86511V148.015H128.251V124.537H33.8609V122.079H129.488L130.715 123.308V149.244L129.488 150.472Z" fill="white"/>
<path fill-rule="evenodd" clip-rule="evenodd" d="M237.839 148.012V149.244L236.612 150.472H108.762L107.536 149.244V123.308L108.762 122.079H208.023V124.537H109.989V148.015H235.375V148.012H237.839Z" fill="white"/>
<path d="M1.54286 135.042H55.1618C55.8458 135.042 56.3885 135.596 56.3885 136.27C56.3885 136.955 55.8348 137.499 55.1618 137.499H2.76933V156.225H8.73904H229.435H235.405V137.51H183.012C182.328 137.51 181.785 136.955 181.785 136.281C181.785 135.596 182.339 135.052 183.012 135.052H236.631L237.857 136.281V157.476L236.631 158.705H230.661V213.099C230.661 213.784 230.108 214.328 229.435 214.328C228.762 214.328 228.208 213.774 228.208 213.099V158.705H9.97645V277.259H229.445C230.129 277.259 230.672 277.814 230.672 278.488C230.672 279.162 230.118 279.717 229.445 279.717H8.74992L7.52345 278.488V158.705H1.55368L0.327148 157.476V136.27L1.54286 135.042Z" fill="white"/>
<path d="M237.857 131.094H0V148.012H237.857V131.094Z" fill="#7700D1"/>
<path d="M219.798 124.499H48.5859V140.895H219.798V124.499Z" fill="#7700D1"/>
<path fill-rule="evenodd" clip-rule="evenodd" d="M55.453 148.012V148.172H53.0633V148.012H55.453ZM35.6451 124.501V122.106C35.2916 122.088 34.9356 122.079 34.5777 122.079H21.2024C9.67332 122.079 0.327148 131.433 0.327148 142.973V148.172H2.71681V142.973C2.71681 132.754 10.9931 124.471 21.2024 124.471H34.5777C34.936 124.471 35.2918 124.481 35.6451 124.501Z" fill="white"/>
<path fill-rule="evenodd" clip-rule="evenodd" d="M182.731 148.012V148.172H185.121V148.012H182.731ZM202.539 124.501V122.106C202.893 122.088 203.249 122.079 203.607 122.079H216.982C228.511 122.079 237.857 131.433 237.857 142.973V148.172H235.468V142.973C235.468 132.754 227.191 124.471 216.982 124.471H203.607C203.249 124.471 202.893 124.481 202.539 124.501Z" fill="white"/>
<path fill-rule="evenodd" clip-rule="evenodd" d="M176.216 239.452V218.109H178.787V239.452H176.216ZM182.846 245.076V242.511H204.606V245.076H182.846ZM211.237 218.109H208.676V239.452H211.237V218.109ZM201.993 209.989H185.538V212.565H201.993V209.989Z" fill="white"/>
<path fill-rule="evenodd" clip-rule="evenodd" d="M185.935 224.464H190.973H196.323H201.361L202.692 223.168V213.05C202.692 212.335 202.095 211.754 201.361 211.754C200.628 211.754 200.031 212.335 200.031 213.05V221.85H196.323H190.973H187.265V213.05C187.265 212.335 186.668 211.754 185.935 211.754C185.201 211.754 184.604 212.335 184.604 213.05V223.168L185.935 224.464Z" fill="white"/>
<path fill-rule="evenodd" clip-rule="evenodd" d="M186.477 212.787V210.02C186.239 210 185.997 209.989 185.753 209.989H184.283C179.828 209.989 176.216 213.604 176.216 218.063V218.109H178.963C178.963 218.094 178.963 218.078 178.963 218.063C178.963 215.122 181.345 212.738 184.283 212.738H185.753C185.999 212.738 186.24 212.754 186.477 212.787Z" fill="white"/>
<path fill-rule="evenodd" clip-rule="evenodd" d="M200.976 212.771V210.01C201.172 209.996 201.371 209.989 201.572 209.989H203.348C207.803 209.989 211.415 213.604 211.415 218.063V218.109H208.669C208.669 218.094 208.669 218.078 208.669 218.063C208.669 215.122 206.287 212.738 203.348 212.738H201.572C201.37 212.738 201.171 212.749 200.976 212.771Z" fill="white"/>
<path fill-rule="evenodd" clip-rule="evenodd" d="M199.061 242.492V245.076H204.299C208.131 245.076 211.237 241.967 211.237 238.132V238.093H208.655C208.655 238.106 208.655 238.119 208.655 238.132C208.655 240.54 206.705 242.492 204.299 242.492H199.061Z" fill="white"/>
<path fill-rule="evenodd" clip-rule="evenodd" d="M188.392 242.492V245.076H183.154C179.322 245.076 176.216 241.967 176.216 238.132V238.093H178.798C178.798 238.106 178.798 238.119 178.798 238.132C178.798 240.54 180.748 242.492 183.154 242.492H188.392Z" fill="white"/>
<path fill-rule="evenodd" clip-rule="evenodd" d="M159.438 274.092V252.748H162.011V274.092H159.438ZM166.069 279.716V277.151H187.829V279.716H166.069ZM194.459 252.748H191.899V274.092H194.459V252.748ZM185.216 244.628H168.761V247.205H185.216V244.628Z" fill="white"/>
<path fill-rule="evenodd" clip-rule="evenodd" d="M169.159 259.104H174.197H179.547H184.585L185.915 257.808V247.69C185.915 246.975 185.319 246.394 184.585 246.394C183.852 246.394 183.255 246.975 183.255 247.69V256.49H179.547H174.197H170.489V247.69C170.489 246.975 169.892 246.394 169.159 246.394C168.425 246.394 167.828 246.975 167.828 247.69V257.808L169.159 259.104Z" fill="white"/>
<path fill-rule="evenodd" clip-rule="evenodd" d="M169.7 247.427V244.66C169.461 244.639 169.22 244.628 168.976 244.628H167.506C163.05 244.628 159.438 248.244 159.438 252.703V252.748H162.185C162.185 252.734 162.185 252.718 162.185 252.703C162.185 249.762 164.567 247.378 167.506 247.378H168.976C169.221 247.378 169.463 247.394 169.7 247.427Z" fill="white"/>
<path fill-rule="evenodd" clip-rule="evenodd" d="M184.198 247.41V244.65C184.393 244.636 184.59 244.628 184.788 244.628H186.579C191.034 244.628 194.646 248.244 194.646 252.703V252.748H191.9C191.9 252.734 191.9 252.718 191.9 252.703C191.9 249.762 189.518 247.378 186.579 247.378H184.788C184.589 247.378 184.392 247.389 184.198 247.41Z" fill="white"/>
<path fill-rule="evenodd" clip-rule="evenodd" d="M182.283 277.132V279.716H187.522C191.353 279.716 194.46 276.607 194.46 272.772V272.733H191.878C191.878 272.746 191.878 272.759 191.878 272.772C191.878 275.18 189.927 277.132 187.522 277.132H182.283Z" fill="white"/>
<path fill-rule="evenodd" clip-rule="evenodd" d="M171.615 277.132V279.716H166.376C162.544 279.716 159.438 276.607 159.438 272.772V272.733H162.02C162.02 272.746 162.02 272.759 162.02 272.772C162.02 275.18 163.971 277.132 166.376 277.132H171.615Z" fill="white"/>
<path fill-rule="evenodd" clip-rule="evenodd" d="M208.874 239.452V218.109H211.446V239.452H208.874ZM215.505 245.076V242.511H237.264V245.076H215.505ZM243.896 218.109H241.334V239.452H243.896V218.109ZM234.652 209.989H218.197V212.565H234.652V209.989Z" fill="white"/>
<path fill-rule="evenodd" clip-rule="evenodd" d="M218.594 224.464H223.632H228.982H234.02L235.35 223.168V213.05C235.35 212.335 234.754 211.754 234.02 211.754C233.287 211.754 232.69 212.335 232.69 213.05V221.85H228.982H223.632H219.924V213.05C219.924 212.335 219.328 211.754 218.594 211.754C217.86 211.754 217.264 212.335 217.264 213.05V223.168L218.594 224.464Z" fill="white"/>
<path fill-rule="evenodd" clip-rule="evenodd" d="M219.135 212.77V210.009C218.942 209.996 218.748 209.989 218.551 209.989H216.746C212.291 209.989 208.679 213.604 208.679 218.063V218.109H211.425C211.425 218.094 211.425 218.078 211.425 218.063C211.425 215.122 213.807 212.738 216.746 212.738H218.551C218.748 212.738 218.943 212.749 219.135 212.77Z" fill="white"/>
<path fill-rule="evenodd" clip-rule="evenodd" d="M233.634 212.787V210.02C233.872 210 234.113 209.989 234.357 209.989H235.827C240.283 209.989 243.895 213.604 243.895 218.063L243.894 218.109H241.148C241.148 218.094 241.148 218.078 241.148 218.063C241.148 215.122 238.766 212.738 235.827 212.738H234.357C234.112 212.738 233.87 212.754 233.634 212.787Z" fill="white"/>
<path fill-rule="evenodd" clip-rule="evenodd" d="M231.719 242.492V245.076H236.957C240.789 245.076 243.896 241.967 243.896 238.132L243.895 238.093H241.313C241.314 238.106 241.314 238.119 241.314 238.132C241.314 240.54 239.363 242.492 236.957 242.492H231.719Z" fill="white"/>
<path fill-rule="evenodd" clip-rule="evenodd" d="M221.05 242.492V245.076H215.812C211.98 245.076 208.874 241.967 208.874 238.132V238.093H211.456C211.456 238.106 211.456 238.119 211.456 238.132C211.456 240.54 213.406 242.492 215.812 242.492H221.05Z" fill="white"/>
<path d="M232.143 212.529H222.882V221.852H232.143V212.529Z" fill="#7700D1"/>
<path d="M235.35 224.464H222.882V242.417H235.35V224.464Z" fill="#7700D1"/>
<path fill-rule="evenodd" clip-rule="evenodd" d="M192.097 274.092V252.748H194.669V274.092H192.097ZM198.728 279.716V277.151H220.487V279.716H198.728ZM227.118 252.748H224.557V274.092H227.118V252.748ZM217.874 244.628H201.42V247.205H217.874V244.628Z" fill="white"/>
<path fill-rule="evenodd" clip-rule="evenodd" d="M201.816 259.104H206.854H212.204H217.243L218.573 257.808V247.69C218.573 246.975 217.977 246.394 217.243 246.394C216.509 246.394 215.913 246.975 215.913 247.69V256.49H212.204H206.854H203.146V247.69C203.146 246.975 202.55 246.394 201.816 246.394C201.082 246.394 200.486 246.975 200.486 247.69V257.808L201.816 259.104Z" fill="white"/>
<path fill-rule="evenodd" clip-rule="evenodd" d="M202.358 247.427V244.66C202.12 244.639 201.879 244.628 201.635 244.628H199.999C195.544 244.628 191.932 248.244 191.932 252.703V252.748H194.678C194.678 252.734 194.678 252.718 194.678 252.703C194.678 249.762 197.06 247.378 199.999 247.378H201.635C201.88 247.378 202.122 247.394 202.358 247.427Z" fill="white"/>
<path fill-rule="evenodd" clip-rule="evenodd" d="M216.857 247.427V244.66C217.096 244.639 217.337 244.628 217.581 244.628H219.236C223.691 244.628 227.303 248.244 227.303 252.703V252.748H224.557C224.557 252.734 224.557 252.718 224.557 252.703C224.557 249.762 222.175 247.378 219.236 247.378H217.581C217.335 247.378 217.094 247.394 216.857 247.427Z" fill="white"/>
<path fill-rule="evenodd" clip-rule="evenodd" d="M214.941 277.132V279.716H220.18C224.012 279.716 227.118 276.607 227.118 272.772V272.733H224.536C224.536 272.746 224.536 272.759 224.536 272.772C224.536 275.18 222.586 277.132 220.18 277.132H214.941Z" fill="white"/>
<path fill-rule="evenodd" clip-rule="evenodd" d="M204.273 277.132V279.716H199.035C195.203 279.716 192.097 276.607 192.097 272.772V272.733H194.679C194.679 272.746 194.679 272.759 194.679 272.772C194.679 275.18 196.629 277.132 199.035 277.132H204.273Z" fill="white"/>
<path fill-rule="evenodd" clip-rule="evenodd" d="M225.063 274.092V252.748H227.636V274.092H225.063ZM231.695 279.716V277.151H253.454V279.716H231.695ZM260.085 252.748H257.524V274.092H260.085V252.748ZM250.841 244.628H234.386V247.205H250.841V244.628Z" fill="white"/>
<path fill-rule="evenodd" clip-rule="evenodd" d="M234.783 259.104H239.821H245.171H250.21L251.54 257.808V247.69C251.54 246.975 250.944 246.394 250.21 246.394C249.476 246.394 248.88 246.975 248.88 247.69V256.49H245.171H239.821H236.113V247.69C236.113 246.975 235.517 246.394 234.783 246.394C234.049 246.394 233.453 246.975 233.453 247.69V257.808L234.783 259.104Z" fill="white"/>
<path fill-rule="evenodd" clip-rule="evenodd" d="M235.325 247.427V244.66C235.086 244.639 234.845 244.628 234.601 244.628H232.968C228.512 244.628 224.9 248.244 224.9 252.703V252.748H227.647C227.647 252.734 227.647 252.718 227.647 252.703C227.647 249.762 230.029 247.378 232.968 247.378H234.601C234.847 247.378 235.088 247.394 235.325 247.427Z" fill="white"/>
<path fill-rule="evenodd" clip-rule="evenodd" d="M249.823 247.427V244.66C250.062 244.639 250.303 244.628 250.547 244.628H252.017C256.473 244.628 260.085 248.244 260.085 252.703L260.085 252.748H257.338C257.338 252.734 257.338 252.718 257.338 252.703C257.338 249.762 254.956 247.378 252.017 247.378H250.547C250.302 247.378 250.06 247.394 249.823 247.427Z" fill="white"/>
<path fill-rule="evenodd" clip-rule="evenodd" d="M247.908 277.132V279.716H253.147C256.978 279.716 260.085 276.607 260.085 272.772L260.084 272.733H257.503C257.503 272.746 257.503 272.759 257.503 272.772C257.503 275.18 255.553 277.132 253.147 277.132H247.908Z" fill="white"/>
<path fill-rule="evenodd" clip-rule="evenodd" d="M237.24 277.132V279.716H232.001C228.169 279.716 225.063 276.607 225.063 272.772V272.733H227.645C227.645 272.746 227.645 272.759 227.645 272.772C227.645 275.18 229.596 277.132 232.001 277.132H237.24Z" fill="white"/>
<path d="M118.784 94.7029C118.596 94.5307 114.157 90.2868 109.655 84.0072C103.521 75.4412 100.415 67.5485 100.415 60.5329C100.415 49.7432 109.2 40.9736 120.008 40.9736C130.816 40.9736 139.601 49.7432 139.601 60.5329C139.601 67.4859 136.495 75.3786 130.361 83.9602C125.859 90.2555 121.42 94.5307 121.232 94.7029H118.784ZM120.008 44.5284C111.161 44.5284 103.976 51.7163 103.976 60.5329C103.976 73.2018 116.055 86.7946 120.008 90.8976C123.945 86.7633 136.04 73.0765 136.04 60.5329C136.04 51.7007 128.855 44.5284 120.008 44.5284Z" fill="white"/>
<path d="M120.007 69.5532C115.019 69.5532 110.972 65.5129 110.972 60.533C110.972 55.5532 115.019 51.5129 120.007 51.5129C124.996 51.5129 129.043 55.5532 129.043 60.533C129.043 65.5129 124.996 69.5532 120.007 69.5532ZM120.007 55.0678C116.98 55.0678 114.533 57.5107 114.533 60.533C114.533 63.5554 116.995 65.9984 120.007 65.9984C123.035 65.9984 125.482 63.5398 125.482 60.533C125.482 57.5264 123.035 55.0678 120.007 55.0678Z" fill="white"/>
<path d="M119.124 93.7841C135.536 95.2225 168.784 114.271 204.219 48.6672C239.655 -16.9368 284.56 14.241 278.015 55.1348C271.469 96.0286 348.48 64.1248 315.962 115.027C288.543 157.947 423.168 191.237 433.904 154.569" stroke="white" stroke-width="2" stroke-dasharray="6 3"/>
</svg>
