<svg width="85" height="41" fill="none" xmlns="http://www.w3.org/2000/svg"><g opacity=".2" fill="#fff"><path d="M2.233 31.588h43.665a2.231 2.231 0 0 0 2.233-2.235 2.231 2.231 0 0 0-2.233-2.235H2.233A2.231 2.231 0 0 0 0 29.353a2.244 2.244 0 0 0 2.233 2.235Z"/><path d="M20.984 40.765h48.289c8.298 0 15.036-6.744 15.036-15.051s-6.738-15.05-15.036-15.05c-2.016 0-3.991.395-5.81 1.166a17.335 17.335 0 0 0-5.117-7.456A17.47 17.47 0 0 0 46.986.16c-5.868 0-11.282 2.987-14.503 7.713-1.798-1.997-4.82-4.054-9.622-4.054-7.212 0-13.06 5.874-13.06 13.073a2.231 2.231 0 1 0 4.465 0c0-4.747 3.853-8.583 8.575-8.583 5.928 0 7.647 4.588 7.706 4.786v-.02l4.228.06c1.877-5.084 6.777-8.485 12.21-8.485 6.383 0 11.776 4.588 12.824 10.897l3.477 1.484a10.475 10.475 0 0 1 5.987-1.88c5.828 0 10.55 4.747 10.55 10.562 0 5.835-4.741 10.561-10.55 10.561H20.984a2.231 2.231 0 0 0-2.233 2.235 2.223 2.223 0 0 0 2.233 2.255Z"/></g></svg>