<svg width="238" height="36" fill="none" xmlns="http://www.w3.org/2000/svg"><path opacity=".12" d="M236.726 12.177c.03.607-.385 1.472-1.847 2.565-1.419 1.062-3.6 2.166-6.519 3.281-5.825 2.225-14.359 4.407-25.002 6.419-21.27 4.02-50.798 7.329-83.537 8.964-32.74 1.636-62.45 1.287-84.016-.594-10.79-.941-19.498-2.262-25.516-3.895-3.016-.819-5.296-1.7-6.814-2.615-1.563-.943-2.063-1.761-2.093-2.368-.03-.607.385-1.471 1.847-2.565 1.419-1.062 3.6-2.166 6.519-3.28 5.825-2.225 14.359-4.408 25.001-6.42 21.27-4.02 50.799-7.328 83.538-8.964 32.739-1.635 62.45-1.286 84.015.595 10.79.94 19.499 2.262 25.517 3.895 3.016.818 5.296 1.7 6.814 2.614 1.563.943 2.063 1.761 2.093 2.368Z" stroke="#fff" stroke-width="2"/></svg>