<svg width="446" height="280" fill="none" xmlns="http://www.w3.org/2000/svg"><path d="M31.533 176.028h83.37l1.226 1.229v9.559l-1.226 1.229h-3.799v90.443l-1.227 1.229H36.58l-1.227-1.229v-90.433h-3.798l-1.227-1.229v-9.558l1.205-1.24Zm6.263 101.231h70.833v-4.589H37.796v4.589Zm0-7.046h70.833v-4.589H37.796v4.589Zm0-7.058h70.833v-4.589H37.796v4.589Zm0-7.046h70.833v-4.59H37.796v4.59Zm0-7.058h70.833v-4.589H37.796v4.589Zm0-7.047h70.833v-4.589H37.796v4.589Zm0-7.058h70.833v-4.589H37.796v4.589Zm0-7.046h70.833v-4.589H37.796v4.589Zm0-7.058h70.833v-4.589H37.796v4.589Zm0-7.047h70.833v-4.589H37.796v4.589Zm0-7.057h70.833v-4.59H37.796v4.59Zm0-7.047h70.833v-4.589H37.796v4.589Zm0-7.057h70.833v-4.579H37.796v4.579Zm-5.037-7.047h80.896v-7.09H32.749v7.09h.01ZM123.271 176.028h83.371l1.226 1.229v9.559l-1.226 1.229h-3.8v25.206a1.226 1.226 0 1 1-2.453 0v-11.103h-70.833v76.34c0 .685-.554 1.229-1.227 1.229a1.233 1.233 0 0 1-1.226-1.229v-90.433h-3.799l-1.227-1.229v-9.558l1.194-1.24Zm77.107 23.663v-4.589h-70.833v4.589h70.833Zm-70.833-7.057h70.833v-4.579h-70.833v4.579Zm-5.036-7.047H205.404v-7.09h-80.906v7.09h.011Z" fill="#fff"/><path fill-rule="evenodd" clip-rule="evenodd" d="M129.488 150.472H1.638l-1.226-1.228v-1.232h2.453v.003h125.386v-23.478h-94.39v-2.458h95.627l1.227 1.229v25.936l-1.227 1.228Z" fill="#fff"/><path fill-rule="evenodd" clip-rule="evenodd" d="M237.839 148.012v1.232l-1.227 1.228h-127.85l-1.226-1.228v-25.936l1.226-1.229h99.261v2.458h-98.034v23.478h125.386v-.003h2.464Z" fill="#fff"/><path d="M1.543 135.042h53.619c.684 0 1.227.554 1.227 1.228 0 .685-.554 1.229-1.227 1.229H2.769v18.726h232.636V137.51h-52.393a1.227 1.227 0 0 1-1.227-1.229c0-.685.554-1.229 1.227-1.229h53.619l1.226 1.229v21.195l-1.226 1.229h-5.97v54.394a1.226 1.226 0 1 1-2.453 0v-54.394H9.976v118.554h219.469c.684 0 1.227.555 1.227 1.229s-.554 1.229-1.227 1.229H8.75l-1.227-1.229V158.705h-5.97l-1.226-1.229V136.27l1.216-1.228Z" fill="#fff"/><path d="M237.857 131.094H0v16.918h237.857v-16.918Z" fill="#7700D1"/><path d="M219.798 124.499H48.586v16.396h171.212v-16.396Z" fill="#7700D1"/><path fill-rule="evenodd" clip-rule="evenodd" d="M55.453 148.012v.16h-2.39v-.16h2.39Zm-19.808-23.511v-2.395c-.353-.018-.71-.027-1.067-.027H21.202c-11.529 0-20.875 9.354-20.875 20.894v5.199h2.39v-5.199c0-10.219 8.276-18.502 18.485-18.502h13.376c.358 0 .714.01 1.067.03ZM182.731 148.012v.16h2.39v-.16h-2.39Zm19.808-23.511v-2.395c.354-.018.71-.027 1.068-.027h13.375c11.529 0 20.875 9.354 20.875 20.894v5.199h-2.389v-5.199c0-10.219-8.277-18.502-18.486-18.502h-13.375c-.358 0-.714.01-1.068.03ZM176.216 239.452v-21.343h2.571v21.343h-2.571Zm6.63 5.624v-2.565h21.76v2.565h-21.76Zm28.391-26.967h-2.561v21.343h2.561v-21.343Zm-9.244-8.12h-16.455v2.576h16.455v-2.576Z" fill="#fff"/><path fill-rule="evenodd" clip-rule="evenodd" d="M185.935 224.464h15.426l1.331-1.296V213.05c0-.715-.597-1.296-1.331-1.296-.733 0-1.33.581-1.33 1.296v8.8h-12.766v-8.8c0-.715-.597-1.296-1.33-1.296-.734 0-1.331.581-1.331 1.296v10.118l1.331 1.296Z" fill="#fff"/><path fill-rule="evenodd" clip-rule="evenodd" d="M186.477 212.787v-2.767a8.653 8.653 0 0 0-.724-.031h-1.47c-4.455 0-8.067 3.615-8.067 8.074v.046h2.747v-.046a5.323 5.323 0 0 1 5.32-5.325h1.47c.246 0 .487.016.724.049ZM200.976 212.771v-2.761a8.37 8.37 0 0 1 .596-.021h1.776c4.455 0 8.067 3.615 8.067 8.074v.046h-2.746v-.046a5.323 5.323 0 0 0-5.321-5.325h-1.776c-.202 0-.401.011-.596.033ZM199.061 242.492v2.584h5.238a6.94 6.94 0 0 0 6.938-6.944v-.039h-2.582v.039c0 2.408-1.95 4.36-4.356 4.36h-5.238ZM188.392 242.492v2.584h-5.238a6.94 6.94 0 0 1-6.938-6.944v-.039h2.582v.039c0 2.408 1.95 4.36 4.356 4.36h5.238Z" fill="#fff"/><path fill-rule="evenodd" clip-rule="evenodd" d="M159.438 274.092v-21.344h2.573v21.344h-2.573Zm6.631 5.624v-2.565h21.76v2.565h-21.76Zm28.39-26.968h-2.56v21.344h2.56v-21.344Zm-9.243-8.12h-16.455v2.577h16.455v-2.577Z" fill="#fff"/><path fill-rule="evenodd" clip-rule="evenodd" d="M169.159 259.104h15.426l1.33-1.296V247.69c0-.715-.596-1.296-1.33-1.296-.733 0-1.33.581-1.33 1.296v8.8h-12.766v-8.8c0-.715-.597-1.296-1.33-1.296-.734 0-1.331.581-1.331 1.296v10.118l1.331 1.296Z" fill="#fff"/><path fill-rule="evenodd" clip-rule="evenodd" d="M169.7 247.427v-2.767a8.262 8.262 0 0 0-.724-.032h-1.47c-4.456 0-8.068 3.616-8.068 8.075v.045h2.747v-.045a5.323 5.323 0 0 1 5.321-5.325h1.47c.245 0 .487.016.724.049ZM184.198 247.41v-2.76c.195-.014.392-.022.59-.022h1.791c4.455 0 8.067 3.616 8.067 8.075v.045H191.9v-.045a5.323 5.323 0 0 0-5.321-5.325h-1.791c-.199 0-.396.011-.59.032ZM182.283 277.132v2.584h5.239a6.942 6.942 0 0 0 6.938-6.944v-.039h-2.582v.039a4.358 4.358 0 0 1-4.356 4.36h-5.239ZM171.615 277.132v2.584h-5.239a6.94 6.94 0 0 1-6.938-6.944v-.039h2.582v.039a4.358 4.358 0 0 0 4.356 4.36h5.239ZM208.874 239.452v-21.343h2.572v21.343h-2.572Zm6.631 5.624v-2.565h21.759v2.565h-21.759Zm28.391-26.967h-2.562v21.343h2.562v-21.343Zm-9.244-8.12h-16.455v2.576h16.455v-2.576Z" fill="#fff"/><path fill-rule="evenodd" clip-rule="evenodd" d="M218.594 224.464h15.426l1.33-1.296V213.05c0-.715-.596-1.296-1.33-1.296-.733 0-1.33.581-1.33 1.296v8.8h-12.766v-8.8c0-.715-.596-1.296-1.33-1.296-.734 0-1.33.581-1.33 1.296v10.118l1.33 1.296Z" fill="#fff"/><path fill-rule="evenodd" clip-rule="evenodd" d="M219.135 212.77v-2.761a8.671 8.671 0 0 0-.584-.02h-1.805c-4.455 0-8.067 3.615-8.067 8.074v.046h2.746v-.046a5.323 5.323 0 0 1 5.321-5.325h1.805c.197 0 .392.011.584.032ZM233.634 212.787v-2.767c.238-.02.479-.031.723-.031h1.47c4.456 0 8.068 3.615 8.068 8.074l-.001.046h-2.746v-.046a5.323 5.323 0 0 0-5.321-5.325h-1.47c-.245 0-.487.016-.723.049ZM231.719 242.492v2.584h5.238a6.942 6.942 0 0 0 6.939-6.944l-.001-.039h-2.582l.001.039a4.359 4.359 0 0 1-4.357 4.36h-5.238ZM221.05 242.492v2.584h-5.238a6.94 6.94 0 0 1-6.938-6.944v-.039h2.582v.039c0 2.408 1.95 4.36 4.356 4.36h5.238Z" fill="#fff"/><path d="M232.143 212.529h-9.261v9.323h9.261v-9.323ZM235.35 224.464h-12.468v17.953h12.468v-17.953Z" fill="#7700D1"/><path fill-rule="evenodd" clip-rule="evenodd" d="M192.097 274.092v-21.344h2.572v21.344h-2.572Zm6.631 5.624v-2.565h21.759v2.565h-21.759Zm28.39-26.968h-2.561v21.344h2.561v-21.344Zm-9.244-8.12H201.42v2.577h16.454v-2.577Z" fill="#fff"/><path fill-rule="evenodd" clip-rule="evenodd" d="M201.816 259.104h15.427l1.33-1.296V247.69c0-.715-.596-1.296-1.33-1.296-.734 0-1.33.581-1.33 1.296v8.8h-12.767v-8.8c0-.715-.596-1.296-1.33-1.296-.734 0-1.33.581-1.33 1.296v10.118l1.33 1.296Z" fill="#fff"/><path fill-rule="evenodd" clip-rule="evenodd" d="M202.358 247.427v-2.767a8.222 8.222 0 0 0-.723-.032h-1.636c-4.455 0-8.067 3.616-8.067 8.075v.045h2.746v-.045a5.323 5.323 0 0 1 5.321-5.325h1.636c.245 0 .487.016.723.049ZM216.857 247.427v-2.767c.239-.021.48-.032.724-.032h1.655c4.455 0 8.067 3.616 8.067 8.075v.045h-2.746v-.045a5.323 5.323 0 0 0-5.321-5.325h-1.655a5.24 5.24 0 0 0-.724.049ZM214.941 277.132v2.584h5.239a6.94 6.94 0 0 0 6.938-6.944v-.039h-2.582v.039c0 2.408-1.95 4.36-4.356 4.36h-5.239ZM204.273 277.132v2.584h-5.238a6.94 6.94 0 0 1-6.938-6.944v-.039h2.582v.039c0 2.408 1.95 4.36 4.356 4.36h5.238Z" fill="#fff"/><path fill-rule="evenodd" clip-rule="evenodd" d="M225.063 274.092v-21.344h2.573v21.344h-2.573Zm6.632 5.624v-2.565h21.759v2.565h-21.759Zm28.39-26.968h-2.561v21.344h2.561v-21.344Zm-9.244-8.12h-16.455v2.577h16.455v-2.577Z" fill="#fff"/><path fill-rule="evenodd" clip-rule="evenodd" d="M234.783 259.104h15.427l1.33-1.296V247.69c0-.715-.596-1.296-1.33-1.296-.734 0-1.33.581-1.33 1.296v8.8h-12.767v-8.8c0-.715-.596-1.296-1.33-1.296-.734 0-1.33.581-1.33 1.296v10.118l1.33 1.296Z" fill="#fff"/><path fill-rule="evenodd" clip-rule="evenodd" d="M235.325 247.427v-2.767a8.262 8.262 0 0 0-.724-.032h-1.633c-4.456 0-8.068 3.616-8.068 8.075v.045h2.747v-.045a5.323 5.323 0 0 1 5.321-5.325h1.633c.246 0 .487.016.724.049ZM249.823 247.427v-2.767c.239-.021.48-.032.724-.032h1.47c4.456 0 8.068 3.616 8.068 8.075v.045h-2.747v-.045a5.323 5.323 0 0 0-5.321-5.325h-1.47c-.245 0-.487.016-.724.049ZM247.908 277.132v2.584h5.239a6.942 6.942 0 0 0 6.938-6.944l-.001-.039h-2.581v.039c0 2.408-1.95 4.36-4.356 4.36h-5.239ZM237.24 277.132v2.584h-5.239a6.94 6.94 0 0 1-6.938-6.944v-.039h2.582v.039a4.358 4.358 0 0 0 4.356 4.36h5.239Z" fill="#fff"/><path d="M118.784 94.703c-.188-.172-4.627-4.416-9.129-10.696-6.134-8.566-9.24-16.459-9.24-23.474 0-10.79 8.785-19.56 19.593-19.56s19.593 8.77 19.593 19.56c0 6.953-3.106 14.846-9.24 23.427-4.502 6.296-8.941 10.57-9.129 10.743h-2.448Zm1.224-50.175c-8.847 0-16.032 7.188-16.032 16.005 0 12.669 12.079 26.262 16.032 30.365 3.937-4.135 16.032-17.822 16.032-30.365 0-8.832-7.185-16.005-16.032-16.005Z" fill="#fff"/><path d="M120.007 69.553c-4.988 0-9.035-4.04-9.035-9.02 0-4.98 4.047-9.02 9.035-9.02 4.989 0 9.036 4.04 9.036 9.02 0 4.98-4.047 9.02-9.036 9.02Zm0-14.485a5.465 5.465 0 0 0-5.474 5.465 5.475 5.475 0 0 0 10.949 0 5.475 5.475 0 0 0-5.475-5.465Z" fill="#fff"/><path d="M119.124 93.784c16.412 1.438 49.66 20.487 85.095-45.117 35.436-65.604 80.341-34.426 73.796 6.468-6.546 40.894 70.465 8.99 37.947 59.892-27.419 42.92 107.206 76.21 117.942 39.542" stroke="#fff" stroke-width="2" stroke-dasharray="6 3"/></svg>