<svg width="300" height="280" fill="none" xmlns="http://www.w3.org/2000/svg"><path d="M32.066 176.24h83.37l1.227 1.228v9.559l-1.227 1.229h-3.799V278.7l-1.226 1.229H37.113l-1.226-1.229v-90.433h-3.8l-1.226-1.229v-9.559l1.205-1.239Zm6.263 101.231h70.833v-4.589H38.329v4.589Zm0-7.047h70.833v-4.589H38.329v4.589Zm0-7.057h70.833v-4.59H38.329v4.59Zm0-7.047h70.833v-4.589H38.329v4.589Zm0-7.057h70.833v-4.589H38.329v4.589Zm0-7.047h70.833v-4.589H38.329v4.589Zm0-7.058h70.833v-4.589H38.329v4.589Zm0-7.047h70.833v-4.589H38.329v4.589Zm0-7.057h70.833v-4.589H38.329v4.589Zm0-7.047h70.833v-4.589H38.329v4.589Zm0-7.057h70.833v-4.59H38.329v4.59Zm0-7.047h70.833v-4.59H38.329v4.59Zm0-7.058h70.833v-4.578H38.329v4.578Zm-5.036-7.047H114.188v-7.09H33.282v7.09h.01ZM123.805 176.24h83.37l1.226 1.228v9.559l-1.226 1.229h-3.799v25.207c0 .685-.554 1.229-1.227 1.229a1.233 1.233 0 0 1-1.226-1.229V202.36h-70.834v76.34c0 .685-.554 1.229-1.227 1.229a1.234 1.234 0 0 1-1.226-1.229v-90.433h-3.799l-1.227-1.229v-9.559l1.195-1.239Zm77.107 23.663v-4.59h-70.834v4.59h70.834Zm-70.834-7.058h70.834v-4.578h-70.834v4.578Zm-5.036-7.047H205.937v-7.09h-80.906v7.09h.011Z" fill="#fff"/><path fill-rule="evenodd" clip-rule="evenodd" d="M130.022 150.684H2.172l-1.227-1.229v-1.231h2.453v.002h125.386v-23.478h-94.39v-2.457h95.628l1.226 1.228v25.936l-1.226 1.229Z" fill="#fff"/><path fill-rule="evenodd" clip-rule="evenodd" d="M238.372 148.224v1.231l-1.227 1.229h-127.85l-1.226-1.229v-25.936l1.226-1.228h99.262v2.457h-98.035v23.478h125.386v-.002h2.464Z" fill="#fff"/><path d="M2.076 135.253h53.62c.683 0 1.226.555 1.226 1.229 0 .685-.554 1.229-1.227 1.229H3.303v18.726h232.635v-18.715h-52.393a1.227 1.227 0 0 1-1.226-1.229c0-.685.553-1.229 1.226-1.229h53.619l1.227 1.229v21.194l-1.227 1.229h-5.97v54.395c0 .685-.553 1.229-1.226 1.229a1.234 1.234 0 0 1-1.227-1.229v-54.395H10.51v118.555h219.469c.684 0 1.226.555 1.226 1.229s-.553 1.229-1.226 1.229H9.283L8.057 278.7V158.916h-5.97L.86 157.687v-21.205l1.216-1.229Z" fill="#fff"/><path d="M238.391 131.306H.533v16.918h237.858v-16.918Z" fill="#7700D1"/><path d="M220.331 124.711H49.119v16.396h171.212v-16.396Z" fill="#7700D1"/><path fill-rule="evenodd" clip-rule="evenodd" d="M55.986 148.224v.16h-2.39v-.16h2.39ZM36.18 124.713v-2.396c-.354-.017-.71-.026-1.068-.026H21.736c-11.53 0-20.876 9.354-20.876 20.893v5.2h2.39v-5.2c0-10.218 8.276-18.502 18.486-18.502H35.11c.358 0 .714.011 1.068.031ZM183.265 148.224v.16h2.389v-.16h-2.389Zm19.808-23.511v-2.396c.353-.017.709-.026 1.067-.026h13.376c11.529 0 20.875 9.354 20.875 20.893v5.2h-2.39v-5.2c0-10.218-8.276-18.502-18.485-18.502H204.14c-.358 0-.714.011-1.067.031ZM176.749 239.664V218.32h2.572v21.344h-2.572Zm6.631 5.624v-2.565h21.759v2.565H183.38Zm28.39-26.968h-2.561v21.344h2.561V218.32Zm-9.243-8.12h-16.456v2.577h16.456V210.2Z" fill="#fff"/><path fill-rule="evenodd" clip-rule="evenodd" d="M186.468 224.675h15.426l1.331-1.295v-10.119c0-.714-.597-1.296-1.331-1.296-.733 0-1.33.582-1.33 1.296v8.801h-12.766v-8.801c0-.714-.596-1.296-1.33-1.296-.734 0-1.33.582-1.33 1.296v10.119l1.33 1.295Z" fill="#fff"/><path fill-rule="evenodd" clip-rule="evenodd" d="M187.01 212.998v-2.766a8.244 8.244 0 0 0-.724-.032h-1.47c-4.455 0-8.067 3.615-8.067 8.075v.045h2.747v-.045a5.323 5.323 0 0 1 5.32-5.326h1.47c.246 0 .488.017.724.049ZM201.509 212.982v-2.76c.196-.015.395-.022.596-.022h1.776c4.456 0 8.068 3.615 8.068 8.075v.045h-2.747v-.045a5.324 5.324 0 0 0-5.321-5.326h-1.776c-.202 0-.401.011-.596.033ZM199.594 242.703v2.585h5.238a6.94 6.94 0 0 0 6.938-6.944v-.039h-2.582v.039a4.358 4.358 0 0 1-4.356 4.359h-5.238ZM188.925 242.703v2.585h-5.238a6.94 6.94 0 0 1-6.938-6.944v-.039h2.582v.039a4.358 4.358 0 0 0 4.356 4.359h5.238Z" fill="#fff"/><path fill-rule="evenodd" clip-rule="evenodd" d="M159.972 274.304V252.96h2.572v21.344h-2.572Zm6.63 5.624v-2.565h21.76v2.565h-21.76Zm28.391-26.968h-2.561v21.344h2.561V252.96Zm-9.244-8.12h-16.455v2.577h16.455v-2.577Z" fill="#fff"/><path fill-rule="evenodd" clip-rule="evenodd" d="M169.692 259.315h15.427l1.33-1.295v-10.119c0-.715-.597-1.296-1.33-1.296-.734 0-1.331.581-1.331 1.296v8.801h-12.766v-8.801c0-.715-.597-1.296-1.33-1.296-.734 0-1.331.581-1.331 1.296v10.119l1.331 1.295Z" fill="#fff"/><path fill-rule="evenodd" clip-rule="evenodd" d="M170.233 247.638v-2.766a8.244 8.244 0 0 0-.724-.032h-1.47c-4.455 0-8.067 3.615-8.067 8.075v.045h2.746v-.045a5.323 5.323 0 0 1 5.321-5.326h1.47c.245 0 .487.017.724.049ZM184.732 247.622v-2.76c.195-.015.391-.022.59-.022h1.79c4.456 0 8.068 3.615 8.068 8.075v.045h-2.747v-.045a5.323 5.323 0 0 0-5.321-5.326h-1.79c-.2 0-.397.011-.59.033ZM182.817 277.343v2.585h5.238a6.94 6.94 0 0 0 6.938-6.944v-.039h-2.582v.039a4.358 4.358 0 0 1-4.356 4.359h-5.238ZM172.148 277.343v2.585h-5.239a6.94 6.94 0 0 1-6.937-6.944v-.039h2.582v.039a4.357 4.357 0 0 0 4.355 4.359h5.239ZM209.407 239.664V218.32h2.572v21.344h-2.572Zm6.631 5.624v-2.565h21.76v2.565h-21.76Zm28.391-26.968h-2.561v21.344h2.561V218.32Zm-9.244-8.12H218.73v2.577h16.455V210.2Z" fill="#fff"/><path fill-rule="evenodd" clip-rule="evenodd" d="M219.127 224.675h15.427l1.33-1.295v-10.119c0-.714-.596-1.296-1.33-1.296-.734 0-1.33.582-1.33 1.296v8.801h-12.767v-8.801c0-.714-.596-1.296-1.33-1.296-.734 0-1.33.582-1.33 1.296v10.119l1.33 1.295Z" fill="#fff"/><path fill-rule="evenodd" clip-rule="evenodd" d="M219.668 212.981v-2.76a8.056 8.056 0 0 0-.584-.021h-1.805c-4.455 0-8.067 3.615-8.067 8.075v.045h2.747v-.045a5.323 5.323 0 0 1 5.32-5.326h1.805c.197 0 .392.011.584.032ZM234.167 212.998v-2.766c.238-.021.48-.032.723-.032h1.471c4.455 0 8.067 3.615 8.067 8.075v.045h-2.747l.001-.045a5.324 5.324 0 0 0-5.321-5.326h-1.471c-.245 0-.487.017-.723.049ZM232.252 242.703v2.585h5.239a6.942 6.942 0 0 0 6.938-6.944l-.001-.039h-2.582l.001.039a4.358 4.358 0 0 1-4.356 4.359h-5.239ZM221.583 242.703v2.585h-5.238a6.94 6.94 0 0 1-6.938-6.944v-.039h2.582v.039a4.358 4.358 0 0 0 4.356 4.359h5.238Z" fill="#fff"/><path d="M232.676 212.74h-9.261v9.323h9.261v-9.323ZM235.883 224.675h-12.468v17.954h12.468v-17.954Z" fill="#7700D1"/><path fill-rule="evenodd" clip-rule="evenodd" d="M192.63 274.304V252.96h2.572v21.344h-2.572Zm6.631 5.624v-2.565h21.759v2.565h-21.759Zm28.39-26.968h-2.561v21.344h2.561V252.96Zm-9.244-8.12h-16.454v2.577h16.454v-2.577Z" fill="#fff"/><path fill-rule="evenodd" clip-rule="evenodd" d="M202.35 259.315h15.426l1.33-1.295v-10.119c0-.715-.596-1.296-1.33-1.296-.734 0-1.33.581-1.33 1.296v8.801h-12.767v-8.801c0-.715-.596-1.296-1.329-1.296-.734 0-1.33.581-1.33 1.296v10.119l1.33 1.295Z" fill="#fff"/><path fill-rule="evenodd" clip-rule="evenodd" d="M202.891 247.638v-2.766a8.222 8.222 0 0 0-.723-.032h-1.636c-4.455 0-8.067 3.615-8.067 8.075v.045h2.747v-.045a5.323 5.323 0 0 1 5.32-5.326h1.636c.246 0 .487.017.723.049ZM217.391 247.638v-2.766c.238-.021.479-.032.723-.032h1.655c4.456 0 8.068 3.615 8.068 8.075v.045h-2.747v-.045a5.323 5.323 0 0 0-5.321-5.326h-1.655c-.245 0-.487.017-.723.049ZM215.475 277.343v2.585h5.238a6.94 6.94 0 0 0 6.938-6.944v-.039h-2.582l.001.039a4.358 4.358 0 0 1-4.357 4.359h-5.238ZM204.806 277.343v2.585h-5.238a6.94 6.94 0 0 1-6.938-6.944v-.039h2.582v.039a4.358 4.358 0 0 0 4.356 4.359h5.238Z" fill="#fff"/><path fill-rule="evenodd" clip-rule="evenodd" d="M225.597 274.304V252.96h2.572v21.344h-2.572Zm6.631 5.624v-2.565h21.759v2.565h-21.759Zm28.39-26.968h-2.561v21.344h2.561V252.96Zm-9.244-8.12H234.92v2.577h16.454v-2.577Z" fill="#fff"/><path fill-rule="evenodd" clip-rule="evenodd" d="M235.316 259.315h15.427l1.33-1.295v-10.119c0-.715-.596-1.296-1.33-1.296-.734 0-1.33.581-1.33 1.296v8.801h-12.767v-8.801c0-.715-.596-1.296-1.33-1.296-.734 0-1.33.581-1.33 1.296v10.119l1.33 1.295Z" fill="#fff"/><path fill-rule="evenodd" clip-rule="evenodd" d="M235.858 247.638v-2.766a8.239 8.239 0 0 0-.723-.032h-1.634c-4.455 0-8.067 3.615-8.067 8.075v.045h2.746v-.045a5.323 5.323 0 0 1 5.321-5.326h1.634c.245 0 .486.017.723.049ZM250.356 247.638v-2.766c.239-.021.481-.032.724-.032h1.471c4.455 0 8.067 3.615 8.067 8.075v.045h-2.747l.001-.045a5.324 5.324 0 0 0-5.321-5.326h-1.471c-.245 0-.487.017-.724.049ZM248.441 277.343v2.585h5.239a6.94 6.94 0 0 0 6.938-6.944v-.039h-2.582v.039a4.358 4.358 0 0 1-4.356 4.359h-5.239ZM237.773 277.343v2.585h-5.239a6.94 6.94 0 0 1-6.937-6.944v-.039h2.582v.039a4.357 4.357 0 0 0 4.355 4.359h5.239Z" fill="#fff"/><path d="M119.318 94.915c-.189-.173-4.628-4.416-9.13-10.696-6.134-8.566-9.24-16.459-9.24-23.474 0-10.79 8.785-19.56 19.593-19.56 10.809 0 19.593 8.77 19.593 19.56 0 6.953-3.106 14.845-9.239 23.427-4.503 6.295-8.942 10.57-9.13 10.743h-2.447Zm1.223-50.175c-8.847 0-16.032 7.188-16.032 16.005 0 12.669 12.079 26.261 16.032 30.364 3.938-4.134 16.032-17.82 16.032-30.364 0-8.833-7.184-16.005-16.032-16.005Z" fill="#fff"/><path d="M120.541 69.765c-4.989 0-9.036-4.04-9.036-9.02 0-4.98 4.047-9.02 9.036-9.02 4.988 0 9.035 4.04 9.035 9.02 0 4.98-4.047 9.02-9.035 9.02Zm0-14.486a5.465 5.465 0 0 0-5.475 5.466 5.475 5.475 0 0 0 10.949 0 5.475 5.475 0 0 0-5.474-5.466Z" fill="#fff"/><path d="M119.658 93.996c16.411 1.438 49.659 20.487 85.094-45.117 35.436-65.604 80.342-34.426 73.796 6.468-6.546 40.893 70.465 8.99 37.947 59.892-27.419 42.92 107.206 76.21 117.942 39.541" stroke="#fff" stroke-width="2" stroke-dasharray="6 3"/></svg>