<svg width="11" height="9" viewBox="0 0 11 9" fill="none" xmlns="http://www.w3.org/2000/svg">
<path d="M10.1118 1.56472L9.3069 0.759799C9.18983 0.642761 9.05073 0.584229 8.88971 0.584229C8.7289 0.584229 8.5897 0.642761 8.47274 0.759799L3.73875 5.49375L1.81457 3.56945C1.69748 3.45233 1.55843 3.39387 1.39752 3.39387C1.23658 3.39387 1.09758 3.45233 0.980465 3.56945L0.175648 4.37426C0.0585833 4.49133 0 4.63038 0 4.79139C0 4.95233 0.0585833 5.09133 0.175648 5.20845L3.3218 8.3546C3.43889 8.47175 3.57794 8.53018 3.73886 8.53018C3.89977 8.53018 4.0388 8.47177 4.15591 8.3546L10.1117 2.3988C10.2287 2.28176 10.2874 2.14269 10.2874 1.98175C10.2874 1.82081 10.2289 1.68176 10.1118 1.56472Z" fill="#7700D1"/>
</svg>
