<svg width="40" height="24" viewBox="0 0 40 24" fill="none" xmlns="http://www.w3.org/2000/svg">
<path fill-rule="evenodd" clip-rule="evenodd" d="M28.0596 1.10959C31.4409 1.89422 32.7343 3.87141 34.3559 6.59277H28.0596V1.10959ZM8.29892 6.82129C8.96096 6.82129 9.4415 7.14085 9.4415 7.8877C9.4415 8.5176 8.9318 9.02849 8.30219 9.03027H1.39941C0.768318 9.03027 0.256836 9.54205 0.256836 10.1729C0.256836 10.8039 0.768318 11.3154 1.39941 11.3154H11.6826C12.3197 11.3154 12.8297 11.8266 12.8297 12.458C12.8297 13.0891 12.3182 13.6006 11.6871 13.6006H1.39941C0.768318 13.6006 0.256836 14.1121 0.256836 14.7432C0.256836 15.3743 0.768318 15.8857 1.39941 15.8857H3.91309V19.3135C3.91309 19.9446 4.42457 20.4561 5.05566 20.4561H7.35242C7.76185 22.4728 9.54385 23.96 11.6445 23.96C13.7452 23.96 15.5272 22.4728 15.9366 20.4561H27.538C27.9474 22.4728 29.7294 23.96 31.8301 23.96C33.9308 23.96 35.7128 22.4728 36.1222 20.4561H38.1143C38.7454 20.4561 39.2568 19.9446 39.2568 19.3135V12.458C39.2568 9.10555 35.7208 8.88299 35.7175 8.87793H26.917C26.2859 8.87793 25.7744 8.36645 25.7744 7.73535V0.879883H5.05566C4.42457 0.879883 3.91309 1.39137 3.91309 2.02246V4.53613H2.54199C1.9109 4.53613 1.39941 5.04762 1.39941 5.67871C1.39941 6.30981 1.9109 6.82129 2.54199 6.82129H8.29892ZM33.3113 18.0989C34.1292 18.9168 34.1292 20.2436 33.3113 21.0616C31.9955 22.3773 29.7354 21.4412 29.7354 19.5801C29.7354 17.7192 31.9955 16.7831 33.3113 18.0989ZM13.1257 18.0989C13.9437 18.9168 13.9437 20.2436 13.1257 21.0616C11.81 22.3773 9.5498 21.4412 9.5498 19.5801C9.5498 17.7192 11.81 16.7831 13.1257 18.0989Z" fill="white"/>
</svg>
