<svg width="23" height="23" viewBox="0 0 23 23" fill="none" xmlns="http://www.w3.org/2000/svg">
<g clip-path="url(#clip0_63_1207)">
<path d="M11.9527 0.509766C5.87833 0.509766 0.953125 5.43497 0.953125 11.5093C0.953125 17.5836 5.87833 22.5098 11.9527 22.5098C18.027 22.5098 22.9531 17.5836 22.9531 11.5093C22.9531 5.43497 18.027 0.509766 11.9527 0.509766ZM14.2425 17.5576C13.6763 17.781 13.2256 17.9505 12.8876 18.0679C12.5505 18.1852 12.1585 18.2439 11.7124 18.2439C11.027 18.2439 10.4934 18.0762 10.1135 17.7419C9.73357 17.4076 9.54453 16.9839 9.54453 16.469C9.54453 16.2687 9.5585 16.0639 9.58644 15.8553C9.6153 15.6467 9.66093 15.412 9.72333 15.1485L10.432 12.6454C10.4944 12.4051 10.5484 12.177 10.5912 11.9647C10.6341 11.7505 10.6545 11.554 10.6545 11.3752C10.6545 11.0567 10.5884 10.8332 10.4571 10.7075C10.324 10.5818 10.0735 10.5203 9.70004 10.5203C9.51753 10.5203 9.32942 10.5474 9.13666 10.6042C8.94576 10.6628 8.78 10.7159 8.64404 10.7681L8.83122 9.997C9.29497 9.80797 9.73916 9.64593 10.1629 9.51184C10.5866 9.37588 10.987 9.30883 11.3641 9.30883C12.0448 9.30883 12.5701 9.47459 12.9397 9.80238C13.3076 10.1311 13.4929 10.5585 13.4929 11.0837C13.4929 11.1927 13.4799 11.3845 13.4547 11.6583C13.4296 11.933 13.3821 12.1835 13.3132 12.4135L12.6082 14.9092C12.5505 15.1094 12.4993 15.3385 12.4527 15.5945C12.4071 15.8506 12.3847 16.0462 12.3847 16.1775C12.3847 16.509 12.4583 16.7353 12.6073 16.8554C12.7544 16.9755 13.0124 17.0361 13.3774 17.0361C13.5497 17.0361 13.7425 17.0053 13.9604 16.9457C14.1764 16.8861 14.3328 16.8331 14.4316 16.7874L14.2425 17.5576ZM14.1177 7.42778C13.789 7.73321 13.3933 7.88593 12.9304 7.88593C12.4686 7.88593 12.07 7.73321 11.7385 7.42778C11.4088 7.12234 11.2421 6.75078 11.2421 6.31683C11.2421 5.88382 11.4098 5.51133 11.7385 5.2031C12.07 4.89393 12.4686 4.74028 12.9304 4.74028C13.3933 4.74028 13.7899 4.89393 14.1177 5.2031C14.4465 5.51133 14.6113 5.88382 14.6113 6.31683C14.6113 6.75171 14.4465 7.12234 14.1177 7.42778Z" fill="#4C0085"/>
</g>
<defs>
<clipPath id="clip0_63_1207">
<rect width="22" height="22" fill="white" transform="translate(0.953125 0.509766)"/>
</clipPath>
</defs>
</svg>
