<svg width="22" height="23" viewBox="0 0 22 23" fill="none" xmlns="http://www.w3.org/2000/svg">
<path d="M16.0482 13.512L16.04 13.5807C14.0242 12.576 13.8134 12.4422 13.553 12.8327C13.3725 13.1031 12.8463 13.7164 12.6877 13.8979C12.5273 14.0766 12.3678 14.0904 12.0955 13.9666C11.8205 13.8291 10.9378 13.5404 9.89279 12.6054C9.07879 11.8766 8.53246 10.9829 8.37113 10.7079C8.10254 10.244 8.66446 10.178 9.17596 9.21004C9.26762 9.01754 9.22087 8.86629 9.15304 8.72971C9.08429 8.59221 8.53704 7.24471 8.30787 6.70754C8.08787 6.17221 7.86146 6.24004 7.69188 6.24004C7.16388 6.19421 6.77796 6.20154 6.43788 6.55538C4.95838 8.18154 5.33146 9.85904 6.59738 11.6429C9.08521 14.8989 10.4107 15.4984 12.8344 16.3307C13.4889 16.5388 14.0856 16.5095 14.5577 16.4416C15.0839 16.3582 16.1775 15.7807 16.4057 15.1345C16.6395 14.4882 16.6395 13.952 16.5707 13.8282C16.5029 13.7045 16.3232 13.6357 16.0482 13.512V13.512Z" fill="white"/>
<path d="M18.81 3.55846C11.7617 -3.25512 0.0971666 1.68663 0.0925833 11.2988C0.0925833 13.2201 0.595833 15.0938 1.55467 16.7484L0 22.3969L5.80708 20.8825C13.0533 24.7967 21.9963 19.5992 22 11.3043C22 8.39296 20.8633 5.65304 18.7962 3.59421L18.81 3.55846ZM20.1685 11.274C20.163 18.271 12.4822 22.6407 6.4075 19.0694L6.0775 18.8732L2.64 19.767L3.56125 16.4257L3.34217 16.082C-0.438167 10.064 3.905 2.19905 11.066 2.19905C13.4988 2.19905 15.7822 3.1478 17.5019 4.86654C19.2207 6.57063 20.1685 8.85404 20.1685 11.274V11.274Z" fill="white"/>
</svg>
