<svg width="27" height="27" viewBox="0 0 27 27" fill="none" xmlns="http://www.w3.org/2000/svg">
<g clip-path="url(#clip0_64_1252)">
<path d="M13.7572 26.4351C15.3158 26.4351 16.6579 25.4936 17.2468 24.1499H10.2676C10.8565 25.4936 12.1987 26.4351 13.7572 26.4351Z" fill="white"/>
<path d="M21.628 13.0218V11.353C21.628 7.80738 19.2712 4.8022 16.0421 3.82064V2.72021C16.0421 1.46018 15.0169 0.435059 13.7569 0.435059C12.4969 0.435059 11.4717 1.46018 11.4717 2.72021V3.82064C8.24256 4.8022 5.8858 7.80733 5.8858 11.353V13.0218C5.8858 16.1363 4.69864 19.0896 2.54302 21.3375C2.33177 21.5578 2.27241 21.8829 2.39215 22.1636C2.5119 22.4443 2.78764 22.6265 3.09283 22.6265H24.421C24.7262 22.6265 25.0019 22.4443 25.1216 22.1636C25.2413 21.8829 25.182 21.5578 24.9708 21.3375C22.8152 19.0896 21.628 16.1363 21.628 13.0218ZM14.5186 3.5189C14.2679 3.49473 14.0139 3.48193 13.7569 3.48193C13.4999 3.48193 13.2459 3.49473 12.9952 3.5189V2.72021C12.9952 2.3002 13.3369 1.9585 13.7569 1.9585C14.1769 1.9585 14.5186 2.3002 14.5186 2.72021V3.5189Z" fill="white"/>
<path d="M23.6596 11.3532C23.6596 11.7738 24.0006 12.1149 24.4213 12.1149C24.8419 12.1149 25.183 11.7738 25.183 11.3532C25.183 8.30121 23.9945 5.43192 21.8365 3.27387C21.539 2.97644 21.0567 2.97639 20.7592 3.27387C20.4618 3.57135 20.4618 4.05362 20.7592 4.35109C22.6296 6.22142 23.6596 8.70812 23.6596 11.3532Z" fill="white"/>
<path d="M3.09277 12.1149C3.51345 12.1149 3.85449 11.7738 3.85449 11.3531C3.85449 8.70814 4.88454 6.22143 6.75481 4.35111C7.05229 4.05363 7.05229 3.57137 6.75481 3.27389C6.45739 2.97641 5.97507 2.97641 5.67759 3.27389C3.51954 5.43194 2.33105 8.30118 2.33105 11.3531C2.33105 11.7738 2.6721 12.1149 3.09277 12.1149Z" fill="white"/>
</g>
<defs>
<clipPath id="clip0_64_1252">
<rect width="26" height="26" fill="white" transform="translate(0.756836 0.435059)"/>
</clipPath>
</defs>
</svg>
