<svg width="25" height="25" viewBox="0 0 25 25" fill="none" xmlns="http://www.w3.org/2000/svg">
<g clip-path="url(#clip0_64_1242)">
<path d="M22.8311 16.1883C21.3617 16.1883 19.919 15.9585 18.5518 15.5067C17.8818 15.2782 17.0583 15.4878 16.6494 15.9077L13.9508 17.9449C10.8213 16.2743 8.89352 14.3472 7.24577 11.2411L9.22296 8.61287C9.73665 8.09987 9.9209 7.3505 9.70015 6.64737C9.2464 5.273 9.0159 3.83093 9.0159 2.36093C9.01596 1.299 8.15202 0.435059 7.09015 0.435059H2.68265C1.62077 0.435059 0.756836 1.299 0.756836 2.36087C0.756836 14.5327 10.6592 24.4351 22.8311 24.4351C23.893 24.4351 24.7569 23.5711 24.7569 22.5092V18.1141C24.7568 17.0522 23.8929 16.1883 22.8311 16.1883Z" fill="white"/>
</g>
<defs>
<clipPath id="clip0_64_1242">
<rect width="24" height="24" fill="white" transform="translate(0.756836 0.435059)"/>
</clipPath>
</defs>
</svg>
