<svg width="138" height="36" fill="none" xmlns="http://www.w3.org/2000/svg"><path d="M55.452 11.8c1.205 0 2.117.315 2.736.944.63.619.944 1.53.944 2.736v3.84c0 1.205-.315 2.123-.944 2.752-.619.619-1.53.928-2.736.928h-6.24V11.8h6.24Zm.8 3.68c0-.96-.48-1.44-1.44-1.44h-2.72v6.72h2.72c.96 0 1.44-.48 1.44-1.44v-3.84Zm12.156-.64c0-.64-.32-.96-.96-.96h-2.72c-.64 0-.96.32-.96.96v5.12c0 .64.32.96.96.96h2.72c.64 0 .96-.32.96-.96v-5.12Zm2.88 5.12c0 1.12-.256 1.936-.768 2.448-.502.501-1.312.752-2.432.752h-4c-1.12 0-1.936-.25-2.448-.752-.502-.512-.752-1.328-.752-2.448v-5.12c0-1.12.25-1.93.752-2.432.512-.512 1.328-.768 2.448-.768h4c1.12 0 1.93.256 2.432.768.512.501.768 1.312.768 2.432v5.12Zm1.751.72c2.923.16 4.901.24 5.936.24.245 0 .437-.07.576-.208.15-.15.224-.347.224-.592v-1.44h-3.68c-1.12 0-1.936-.25-2.448-.752-.501-.512-.752-1.328-.752-2.448V15c0-1.12.25-1.93.752-2.432.512-.512 1.328-.768 2.448-.768h5.616v2.24h-4.976c-.64 0-.96.32-.96.96v.32c0 .64.32.96.96.96h2.88c1.045 0 1.813.245 2.304.736.49.49.736 1.259.736 2.304v.8c0 1.045-.245 1.813-.736 2.304-.49.49-1.259.736-2.304.736-.544 0-1.12-.01-1.728-.032l-1.472-.064a101.281 101.281 0 0 1-3.376-.224v-2.16ZM89.217 23h-2.88v-8.96h-3.36V11.8h9.6v2.24h-3.36V23Zm5.837 0h-3.12l4.24-11.2h3.2l4.24 11.2h-3.12l-.72-2h-4l-.72 2Zm1.44-4.08h2.56l-1.28-3.76-1.28 3.76Zm11.994.72 2.72-7.84h3.12l-4.24 11.2h-3.2l-4.24-11.2h3.12l2.72 7.84Zm16 3.36h-8.88V11.8h8.88v2.24h-6v2.16h4.72v2.24h-4.72v2.32h6V23Zm1.756-11.2h6.72c1.12 0 1.93.256 2.432.768.512.501.768 1.312.768 2.432v1.44c0 .885-.15 1.573-.448 2.064-.288.49-.752.816-1.392.976l2 3.52h-3.12l-1.84-3.36h-2.24V23h-2.88V11.8Zm7.04 3.2c0-.64-.32-.96-.96-.96h-3.2v3.36h3.2c.64 0 .96-.32.96-.96V15ZM18 33.702c-8.672 0-15.703-7.03-15.703-15.702S9.327 2.298 18 2.298c8.672 0 15.702 7.03 15.702 15.702a1.15 1.15 0 0 0 2.297 0C36 8.06 27.94 0 18 0 8.06 0 0 8.06 0 18s8.059 18 18 18a1.15 1.15 0 0 0 0-2.298Z" fill="#4C0085"/><path d="M18 33.702c-8.672 0-15.703-7.03-15.703-15.702S9.327 2.298 18 2.298c8.672 0 15.702 7.03 15.702 15.702a1.15 1.15 0 0 0 2.297 0C36 8.06 27.94 0 18 0 8.06 0 0 8.06 0 18s8.059 18 18 18a1.15 1.15 0 0 0 0-2.298Z" fill="#4C0085"/><path d="M16.85 5.745v12.638h-6.51a1.15 1.15 0 0 0 0 2.298H18a1.15 1.15 0 0 0 1.149-1.15V5.746a1.15 1.15 0 0 0-2.298 0Z" fill="#4C0085"/><path d="M16.85 5.745v12.638h-6.51a1.15 1.15 0 0 0 0 2.298H18a1.15 1.15 0 0 0 1.149-1.15V5.746a1.15 1.15 0 0 0-2.298 0ZM27.191 18.383a8.808 8.808 0 0 0-8.808 8.808A8.808 8.808 0 0 0 27.19 36 8.808 8.808 0 0 0 36 27.191a8.808 8.808 0 0 0-8.809-8.808Zm.107 12.731a1.15 1.15 0 0 1-1.61.224l-3.513-2.656a1.149 1.149 0 0 1 1.386-1.833l2.597 1.963 3.661-4.843a1.15 1.15 0 1 1 1.833 1.386l-4.354 5.76Z" fill="#4C0085"/><path d="M27.191 18.383a8.808 8.808 0 0 0-8.808 8.808A8.808 8.808 0 0 0 27.19 36 8.808 8.808 0 0 0 36 27.191a8.808 8.808 0 0 0-8.809-8.808Zm.107 12.731a1.15 1.15 0 0 1-1.61.224l-3.513-2.656a1.149 1.149 0 0 1 1.386-1.833l2.597 1.963 3.661-4.843a1.15 1.15 0 1 1 1.833 1.386l-4.354 5.76Z" fill="#4C0085"/></svg>